<?xml version="1.0" encoding="UTF-8" standalone="no"?>
<!-- Created with Inkscape (http://www.inkscape.org/) -->

<svg
   width="350mm"
   height="220mm"
   viewBox="0 0 350 220"
   version="1.1"
   id="svg5"
   xml:space="preserve"
   inkscape:version="1.2 (dc2aedaf03, 2022-05-15)"
   sodipodi:docname="blob5.svg"
   xmlns:inkscape="http://www.inkscape.org/namespaces/inkscape"
   xmlns:sodipodi="http://sodipodi.sourceforge.net/DTD/sodipodi-0.dtd"
   xmlns="http://www.w3.org/2000/svg"
   xmlns:svg="http://www.w3.org/2000/svg"><sodipodi:namedview
     id="namedview7"
     pagecolor="#ffffff"
     bordercolor="#000000"
     borderopacity="0.25"
     inkscape:showpageshadow="2"
     inkscape:pageopacity="0.0"
     inkscape:pagecheckerboard="0"
     inkscape:deskcolor="#d1d1d1"
     inkscape:document-units="mm"
     showgrid="false"
     inkscape:zoom="0.52221046"
     inkscape:cx="700.86685"
     inkscape:cy="524.69267"
     inkscape:window-width="1920"
     inkscape:window-height="1009"
     inkscape:window-x="-8"
     inkscape:window-y="-8"
     inkscape:window-maximized="1"
     inkscape:current-layer="layer1" /><defs
     id="defs2" /><g
     inkscape:label="Layer 1"
     inkscape:groupmode="layer"
     id="layer1"><path
       style="fill:#000000;stroke-width:0.264583"
       d="m 198.10419,181.63774 c 0,0 36.73288,35.71955 84.10562,27.10633 47.37275,-8.61323 51.67934,-53.45267 51.67934,-53.45267 0,0 6.58659,-31.66627 -35.71954,-41.29282 -42.30613,-9.62654 -18.23977,-43.826123 -18.23977,-43.826123 0,0 32.67959,-40.532827 -25.07969,-57.505949 -57.75928,-16.973121 -82.33231,56.239299 -82.33231,56.239299 0,0 -5.57326,50.666033 -69.66579,41.039493 -64.092534,-9.62655 -78.025694,31.15961 -78.025694,31.15961 0,0 -25.8396767,53.706 34.199573,54.71932 60.039251,1.01332 103.105381,-33.69292 139.078261,-14.18649 z"
       id="path292" /></g></svg>
