<?xml version="1.0" encoding="UTF-8" standalone="no"?>
<!-- Created with Inkscape (http://www.inkscape.org/) -->

<svg
   width="300mm"
   height="50mm"
   viewBox="0 0 300 50"
   version="1.1"
   id="svg5"
   inkscape:version="1.2 (dc2aedaf03, 2022-05-15)"
   sodipodi:docname="footer2.svg"
   xmlns:inkscape="http://www.inkscape.org/namespaces/inkscape"
   xmlns:sodipodi="http://sodipodi.sourceforge.net/DTD/sodipodi-0.dtd"
   xmlns="http://www.w3.org/2000/svg"
   xmlns:svg="http://www.w3.org/2000/svg">
  <sodipodi:namedview
     id="namedview7"
     pagecolor="#ffffff"
     bordercolor="#000000"
     borderopacity="0.25"
     inkscape:showpageshadow="2"
     inkscape:pageopacity="0.0"
     inkscape:pagecheckerboard="0"
     inkscape:deskcolor="#d1d1d1"
     inkscape:document-units="mm"
     showgrid="false"
     inkscape:zoom="2.8284271"
     inkscape:cx="989.24238"
     inkscape:cy="80.963726"
     inkscape:window-width="1920"
     inkscape:window-height="1009"
     inkscape:window-x="-8"
     inkscape:window-y="-8"
     inkscape:window-maximized="1"
     inkscape:current-layer="layer1" />
  <defs
     id="defs2" />
  <g
     inkscape:label="Layer 1"
     inkscape:groupmode="layer"
     id="layer1">
    <path
       style="fill:#5d5682;stroke-width:0.264602"
       d="M 0.21124423,50.009536 300.16441,49.935326 V 8.6929127 c 0,0 -3.60428,0 -6.77103,5.3205293 -3.16671,5.32053 -8.61352,8.360833 -13.80698,5.827247 -5.19345,-2.533585 -12.66694,-19.00189275 -18.49373,-17.9884584 -5.82681,1.0134343 -10.13357,10.1343424 -14.31366,7.2207197 -4.18012,-2.9136238 -6.58683,-2.406907 -19.12712,8.4875117 -12.54027,10.894419 -17.73372,-0.760076 -17.73372,-0.760076 0,0 -7.34684,-18.4951756 -21.78719,-5.953927 -14.44032,12.541251 -24.09847,-4.447572 -24.09847,-4.447572 0,0 -10.83842,-13.4449448 -25.65875,-0.9036945 -22.78424,17.3739575 -36.34651,20.5707535 -57.785228,2.3109647 0,0 -9.75357,-13.5546841 -23.433879,1.1401139 -13.68032,14.6947969 -22.67386,3.5470199 -22.67386,3.5470199 0,0 -8.613517,-11.1477775 -18.493748,-0.12668 C 8.7267013,20.465319 5.8865222,13.92001 3.6719201,10.602434 2.257281,8.4832311 0.01883666,8.7677784 0.01883666,8.7677784 c 0,0 -0.02845253,40.8946596 -0.02845253,41.1153376 l 0.00784652,0.126354 z"
       id="path63-0"
       sodipodi:nodetypes="cccssssscscccscsscccc" />
  </g>
</svg>
